<?xml version="1.0" encoding="UTF-8" standalone="no"?>
<!-- Created with Inkscape (http://www.inkscape.org/) -->

<svg
   version="1.1"
   id="svg1"
   width="506"
   height="371"
   viewBox="0 0 506 371"
   xmlns="http://www.w3.org/2000/svg"
   xmlns:svg="http://www.w3.org/2000/svg">
  <defs
     id="defs1" />
  <g
     id="g1">
    <path
       style="fill:#ffffff;fill-opacity:1;stroke-width:0.827468"
       d="m 331.35227,368.83578 c -35.54781,-4.84692 -61.61968,-16.93489 -83.82459,-38.86448 -7.93281,-7.83444 -15.28743,-16.63046 -15.28403,-18.27948 8.2e-4,-0.41376 3.63137,-2.0128 8.06781,-3.55341 16.35363,-5.67903 36.29074,-16.81566 48.78283,-27.24951 2.82449,-2.35911 5.37506,-4.2893 5.66794,-4.2893 0.29289,0 4.68443,1.65774 9.759,3.68386 37.30414,14.89446 71.79079,11.65601 93.6523,-8.79434 8.63181,-8.07466 16.00673,-20.66848 17.48009,-29.85005 l 0.49795,-3.10301 h -32.37702 -32.37702 v -41.3777 -41.3777 l 76.74768,0.21116 76.74769,0.21115 0.22793,42.20089 c 0.24808,45.93111 -0.18715,52.527 -4.43271,67.17755 -7.78667,26.87017 -31.02712,58.29767 -56.64713,76.60252 -9.29125,6.63837 -29.58021,16.91848 -40.30689,20.42291 -20.79911,6.79509 -49.87714,9.29745 -72.38183,6.22894 z M 0.5558722,220.9592 C 0.5608862,62.206541 0.4185952,67.153931 5.4067305,52.682351 16.668194,20.010631 50.771074,-1.1560693 89.503824,0.4856517 113.2984,1.4942037 129.4772,7.8620997 144.41807,22.099651 c 9.78317,9.32264 9.4419,8.7343 66.38724,114.450939 4.71911,8.76083 8.77331,15.91817 9.00935,15.90521 0.23603,-0.013 2.47713,-3.82464 4.98022,-8.47042 5.07228,-9.4142 35.89177,-63.48165 44.70206,-78.422009 27.27434,-46.251423 64.19287,-66.9276003 116.24052,-65.1003933 41.63244,1.461573 74.87298,18.1534153 98.05503,49.2386233 13.56262,18.18635 20.01925,36.510749 21.27149,60.370019 l 0.48858,9.30901 H 460.94053 416.3285 l -1.39709,-3.93047 c -2.22458,-6.25848 -8.79591,-15.08549 -14.35719,-19.28548 -10.5315,-7.95356 -24.73885,-9.64592 -36.14979,-4.3061 -10.04112,4.69881 -12.66765,8.08899 -32.22083,41.58901 -21.3942,36.6542 -39.55969,67.9479 -53.07668,91.43524 -19.31848,33.56811 -21.27273,36.19112 -32.42986,43.52758 -12.08922,7.94939 -31.1956,10.21886 -45.66252,5.42386 -13.27505,-4.39996 -24.01882,-13.57924 -31.62936,-27.02352 -2.18985,-3.86842 -16.61968,-29.18895 -32.06633,-56.26785 -15.44665,-27.0789 -30.80847,-54.16814 -34.13739,-60.19832 -3.32894,-6.03017 -6.56134,-10.96395 -7.18313,-10.96395 -0.949741,0 -1.164061,19.68519 -1.340121,123.08591 l -0.09989,127.41495 -47.23303,0.0492 -46.7943028,0.0492 z"
       id="path1" />
  </g>
</svg>
